<svg width="700" height="700" viewBox="0 0 700 700" fill="none" xmlns="http://www.w3.org/2000/svg">
<g clip-path="url(#clip0_451_38)">
<rect width="700" height="700" fill="white"/>
<rect width="700" height="700" fill="#FF5470"/>
<path d="M273.299 523.825L310.015 512.819L314.525 385.373C314.525 377.705 313.916 372.729 312.699 370.443C311.481 368.188 308.413 365.64 303.52 362.821L280.448 350.236L284.778 321.211C309.812 316.407 372.102 292.704 388.724 286.299C389.247 286.092 389.809 285.999 390.371 286.024C390.934 286.05 391.484 286.194 391.987 286.448C392.489 286.701 392.933 287.058 393.288 287.495C393.643 287.932 393.901 288.439 394.046 288.983C396.64 298.68 398.737 322.113 398.715 335.081L398.173 495.566C398.173 502.918 398.7 507.812 399.752 510.248C400.805 512.684 403.774 515.307 408.66 518.119L434.258 532.846L432.16 572.178H274.878L273.299 523.825Z" fill="white"/>
<path fill-rule="evenodd" clip-rule="evenodd" d="M303.367 98.7037C338.586 83.1782 382.249 89.0261 409.162 115.438C438.029 143.774 444.036 192.86 416.407 227.528C415.551 228.634 414.621 229.722 413.691 230.782C412.798 232.38 411.84 233.989 410.836 235.588C386.108 274.606 345.496 278.631 311.505 263.134C308.324 262.021 305.231 260.672 302.252 259.099C294.523 254.994 287.594 249.537 281.792 242.988C267.563 229.405 257.008 211.937 253.214 192.711C249.516 156.029 263.164 134.961 286.599 115.438C261.57 118.613 232.306 155.972 229.76 160.804C229.49 161.317 229.394 161.499 229.471 161.289C241.701 128.295 267.061 109.06 295.798 102.553C298.252 101.139 300.779 99.8544 303.367 98.7037ZM412.51 212.978C432.216 177.809 422.489 132.376 387.15 112.258C364.607 99.4287 334.801 96.7142 309.812 107.015C328.153 105.147 346.655 108.309 363.333 116.163C400.625 133.669 426.72 172.073 412.51 212.978ZM336.81 259.239C356.907 262.325 377.71 257.472 393.436 239.957C394.899 238.327 396.285 236.666 397.593 234.974C380.686 249.775 358.394 259.09 336.81 259.239ZM339.031 243.41C369.911 243.41 394.944 218.376 394.944 187.496C394.944 156.616 369.911 131.583 339.031 131.583C308.151 131.583 283.117 156.616 283.117 187.496C283.117 218.376 308.151 243.41 339.031 243.41ZM270.268 188.122C267.207 124.036 310.498 117.821 330.115 118.967C282.75 130.112 275.347 164.581 271.213 183.83C270.883 185.364 270.575 186.801 270.268 188.122Z" fill="white"/>
</g>
<defs>
<clipPath id="clip0_451_38">
<rect width="700" height="700" fill="white"/>
</clipPath>
</defs>
</svg>
